<svg xmlns="http://www.w3.org/2000/svg" viewBox="0 0 34.08 44.9"><defs><style>.cls-1{fill:#fffbf5;stroke:#686868;stroke-miterlimit:10;stroke-width:0.16px;}.cls-2{fill:#b75546;}.cls-3{fill:#3e7f46;}</style></defs><title>closedbook</title><g id="others"><polyline class="cls-1" points="32.05 35.48 31.98 36.47 32.32 37.48 32.25 38.29 32.53 39.01 5.71 43.11 5.22 39.48 32.05 35.48"/><polyline class="cls-2" points="32.1 34.69 27.36 5.97 1.18 9.55 4.45 39.2 32.1 34.69"/><polygon class="cls-2" points="32.1 34.66 4.41 38.9 4.42 40.69 4.61 42.31 5.07 43.76 32.77 39.62 32.68 38.97 5.71 43.11 5.22 39.48 32.2 35.44 32.1 34.66"/><polyline class="cls-1" points="31.71 30.8 31.65 31.79 31.98 32.8 31.92 33.61 32.19 34.34 5.38 38.43 4.89 34.8 31.71 30.8"/><polyline class="cls-3" points="31.77 30.01 27.02 1.29 0.84 4.88 4.11 34.52 31.77 30.01"/><polygon class="cls-3" points="31.77 29.98 4.07 34.22 4.09 36.02 4.28 37.63 4.73 39.09 32.44 34.94 32.35 34.29 5.38 38.43 4.89 34.8 31.87 30.76 31.77 29.98"/></g></svg>