<svg xmlns="http://www.w3.org/2000/svg" viewBox="0 0 75.32 47.31"><defs><style>.cls-1{fill:#5d757f;}.cls-2{fill:#85d1f8;}.cls-3{fill:#fcfcfc;}.cls-4{fill:none;stroke:#5d757f;stroke-miterlimit:10;stroke-width:0.3px;}</style></defs><title>macbookclose</title><g id="others"><path class="cls-1" d="M29.07,45.13,14,37.72,5.28,33.41a9.93,9.93,0,0,0-2.42-1.2c-.6-.08-.75,1,.08.71,4.42-1.63,8.94-5.86,12.87-8.43L35,11.91l6.93-4.54c1-.69,2.76-2.37,4-2.63-.11,0-1,0,0,.23a15.5,15.5,0,0,1,2.64,1.32l10.08,5.09,9,4.55a22.43,22.43,0,0,0,3.49,1.77c.34.1.72.51,1.08.54,1.81.18-2.09.35.54-.85-3.65,1.66-7.11,4.45-10.5,6.57L28.4,45.13c-.72.45,0,1.6.67,1.14l44.4-27.74a.67.67,0,0,0,0-1.15L46,3.54a.65.65,0,0,0-.67,0L1.85,32.05a.67.67,0,0,0,0,1.14L28.4,46.27C29.17,46.65,29.84,45.51,29.07,45.13Z"/><polygon class="cls-2" points="28.02 45.26 1.83 32.49 45.86 3.69 72.41 17.51 28.02 45.26"/><ellipse class="cls-3" cx="38.6" cy="22.57" rx="2.42" ry="3.29" transform="translate(5.14 52.24) rotate(-71.88)"/><path class="cls-4" d="M1.83,32.49,27.52,45a1,1,0,0,0,1-.05L71.6,18c.65-.41.65-.6,0-1C66.73,14.5,51,6.18,45.28,3.39"/></g></svg>