<svg xmlns="http://www.w3.org/2000/svg" viewBox="0 0 648.88 671.89"><defs><style>.cls-1,.cls-5{fill:#b55a36;}.cls-2{fill:#9cdbe1;}.cls-3{fill:#7cd9e0;}.cls-4{fill:#cbe0db;}.cls-5,.cls-6,.cls-7{stroke:#d09968;}.cls-17,.cls-18,.cls-29,.cls-30,.cls-5,.cls-6,.cls-7{stroke-miterlimit:10;}.cls-6{fill:#a64106;}.cls-7{fill:#7e3618;}.cls-8{fill:#54bcc4;}.cls-9{fill:#d7d2e6;}.cls-10{fill:#ffecf3;}.cls-11{fill:#d2d6ec;}.cls-12{fill:#0ae1f2;}.cls-13{fill:#e7e7e7;}.cls-14{fill:#dbdddb;}.cls-15{fill:#917f5e;}.cls-16,.cls-29{fill:#c9a77b;}.cls-17{fill:#d0e2ea;stroke:#e0f8ff;stroke-width:5px;}.cls-18{fill:#e5d180;stroke:#bc9f11;}.cls-19{fill:#6f8949;}.cls-20{fill:#211f17;}.cls-21{fill:#81a553;}.cls-22{fill:#c0e1e2;}.cls-23{fill:#f7fdff;}.cls-24{fill:#e5e6e8;}.cls-25{fill:#c8d0d5;}.cls-26{fill:#e4e4e4;}.cls-27{fill:#f8aa5c;}.cls-28{fill:#ffbf05;}.cls-29{stroke:#f8aa5c;stroke-width:0.75px;}.cls-30{fill:none;stroke:#aaafab;stroke-width:3px;}.cls-31{fill:#f0f4f1;}.cls-32{fill:#c4b2d3;}.cls-33{fill:#ce93c3;}.cls-34{fill:#e8c7e2;}.cls-35{fill:#f4f487;}.cls-36{fill:#fda619;}.cls-37{fill:#e5f786;}</style></defs><title>bathroom</title><g id="bathroom"><polygon class="cls-1" points="324.04 653.76 0 466.71 0 195.36 326.68 8.31 649.4 195.36 649.4 466.71 324.04 653.76"/><polygon class="cls-2" points="13.17 458.81 324.04 639.27 638.87 458.81 324.04 278.35 13.17 458.81"/><polygon class="cls-3" points="13.17 458.81 13.17 200.63 326.68 20.17 324.04 278.35 13.17 458.81"/><polygon class="cls-4" points="638.87 458.81 638.87 200.63 326.68 20.17 324.04 278.35 638.87 458.81"/><polygon class="cls-5" points="76.45 151.59 87.39 157.91 53.38 177.48 42.35 171.11 76.45 151.59"/><polygon class="cls-6" points="110.65 131.53 121.59 137.85 87.58 157.42 76.55 151.05 110.65 131.53"/><polygon class="cls-7" points="145.27 111.49 156.21 117.81 122.2 137.38 111.17 131.01 145.27 111.49"/><polygon class="cls-5" points="179.97 91.86 190.91 98.17 156.9 117.75 145.87 111.38 179.97 91.86"/><polygon class="cls-6" points="214.39 72.32 225.34 78.64 191.32 98.22 180.29 91.85 214.39 72.32"/><polygon class="cls-5" points="248.81 52.63 259.76 58.95 225.75 78.53 214.71 72.16 248.81 52.63"/><polygon class="cls-7" points="283.11 32.91 294.05 39.23 260.04 58.81 249 52.44 283.11 32.91"/><polygon class="cls-5" points="0 379.65 13.17 387.07 13.17 353.31 0 345.72 0 379.65"/><polygon class="cls-7" points="0 344.7 13.17 352.12 13.17 318.37 0 310.77 0 344.7"/><polygon class="cls-5" points="0 310.61 13.17 318.03 13.17 284.28 0 276.68 0 310.61"/><polygon class="cls-7" points="0 275.67 13.17 283.09 13.17 249.33 0 241.74 0 275.67"/><polygon class="cls-6" points="0 242.13 13.17 249.55 13.17 215.8 0 208.2 0 242.13"/><polygon class="cls-7" points="0 195.77 13.17 200.63 53.38 177.48 42.35 171.11 0 195.77"/><polygon class="cls-7" points="153.6 538.83 153.6 556.95 119.57 537.34 119.57 519.67 153.6 538.83"/><polygon class="cls-5" points="119.57 519.02 119.57 537.13 85.55 517.53 85.55 499.86 119.57 519.02"/><polygon class="cls-6" points="87.52 500.38 87.52 518.5 53.49 498.89 53.49 481.22 87.52 500.38"/><polygon class="cls-7" points="53.49 480.3 53.49 498.41 19.46 478.8 19.46 461.13 53.49 480.3"/><polygon class="cls-6" points="19.46 460.48 19.46 478.6 0 466.71 0 449.52 19.46 460.48"/><polygon class="cls-7" points="0 449.52 13.17 456.94 13.17 423.19 0 415.59 0 449.52"/><polygon class="cls-6" points="0 414.58 13.17 422 13.17 388.24 0 380.65 0 414.58"/><polygon class="cls-7" points="390.9 601.16 391.23 615.06 391.23 619.55 360.56 637.54 360.24 619.14 390.9 601.16"/><polygon class="cls-5" points="359.91 619.35 360.24 633.25 360.24 637.75 324.65 657.15 324.04 639.27 359.91 619.35"/><polygon class="cls-7" points="324.04 639.27 324.65 657.15 290.63 637.54 290.63 619.87 324.04 639.27"/><polygon class="cls-6" points="290.63 619.87 290.63 637.99 256.6 618.38 256.6 600.71 290.63 619.87"/><polygon class="cls-7" points="256.6 599.78 256.6 617.9 222.57 598.29 222.57 580.62 256.6 599.78"/><polygon class="cls-5" points="222.57 579.97 222.57 598.09 188.54 578.48 188.54 560.81 222.57 579.97"/><polygon class="cls-6" points="187.63 558.92 187.63 577.04 153.6 557.43 153.6 539.76 187.63 558.92"/><polygon class="cls-6" points="326.54 8.64 337.08 14.54 325.06 21.59 314.74 15.22 326.54 8.64"/><polygon class="cls-6" points="638.87 458.81 639.19 472.71 639.19 477.21 608.53 495.19 608.2 476.8 638.87 458.81"/><polygon class="cls-5" points="608.64 476.23 608.97 490.13 608.97 494.62 578.3 512.61 577.98 494.21 608.64 476.23"/><polygon class="cls-7" points="577.74 493.77 577.82 507.67 577.74 512.17 546.76 529.61 546.76 511.21 577.74 493.77"/><polygon class="cls-6" points="545.99 511.69 546.32 525.59 546.32 530.09 515.65 548.08 515.33 529.68 545.99 511.69"/><polygon class="cls-5" points="515.3 529.88 515.63 543.78 515.11 548.58 484.44 566.57 484.64 547.87 515.3 529.88"/><polygon class="cls-7" points="483.88 548.08 484.21 561.98 484.21 566.47 453.54 584.46 453.21 566.06 483.88 548.08"/><polygon class="cls-5" points="452.89 565.43 453.21 579.33 453.21 583.82 422.55 601.81 422.22 583.41 452.89 565.43"/><polygon class="cls-6" points="421.9 582.96 422.22 596.87 422.22 601.36 391.56 619.35 391.23 600.95 421.9 582.96"/><polygon class="cls-6" points="595.07 174.88 605.82 169.25 631.94 184.39 621.73 190.28 595.07 174.88"/><polygon class="cls-7" points="621.73 190.28 631.94 184.39 649.4 194.91 639.19 200.8 621.73 190.28"/><polygon class="cls-6" points="639.19 200.8 649.4 194.91 649.4 239.49 639.19 245.63 639.19 200.8"/><polygon class="cls-5" points="639.19 246.31 649.4 240.42 649.4 285 639.19 291.14 639.19 246.31"/><polygon class="cls-7" points="639.19 291.36 649.4 285.46 649.4 330.04 639.19 336.18 639.19 291.36"/><polygon class="cls-6" points="638.66 336.65 648.88 330.76 648.88 375.34 638.66 381.48 638.66 336.65"/><polygon class="cls-5" points="638.66 382.16 648.88 376.27 648.88 420.85 638.66 426.99 638.66 382.16"/><polygon class="cls-6" points="639.19 427.88 649.4 421.99 649.4 471.09 639.19 477.21 639.19 427.88"/><polygon class="cls-5" points="406.31 66.27 417.05 60.64 443.17 75.78 432.96 81.68 406.31 66.27"/><polygon class="cls-6" points="433.1 81.8 443.84 76.17 469.96 91.31 459.75 97.2 433.1 81.8"/><polygon class="cls-7" points="460.23 97.19 470.97 91.56 497.09 106.7 486.88 112.59 460.23 97.19"/><polygon class="cls-5" points="487.02 112.71 497.76 107.08 523.88 122.22 513.67 128.12 487.02 112.71"/><polygon class="cls-7" points="514.36 128.44 525.11 122.81 551.23 137.95 541.02 143.85 514.36 128.44"/><polygon class="cls-6" points="541.15 143.96 551.9 138.33 578.02 153.47 567.81 159.37 541.15 143.96"/><polygon class="cls-5" points="568.28 159.35 579.02 153.72 605.15 168.87 594.94 174.76 568.28 159.35"/><polygon class="cls-5" points="326.48 19.83 337.22 14.2 363.35 29.34 353.13 35.24 326.48 19.83"/><polygon class="cls-7" points="353.27 35.35 364.01 29.73 390.14 44.87 379.93 50.76 353.27 35.35"/><polygon class="cls-6" points="379.84 50.95 390.58 45.32 416.71 60.46 406.5 66.36 379.84 50.95"/><polygon class="cls-8" points="291.9 607.03 326.02 587.33 360.24 607.28 326.07 626.52 291.9 607.03"/><polygon class="cls-8" points="223.46 567.52 257.58 547.82 291.8 567.76 257.63 587.01 223.46 567.52"/><polygon class="cls-8" points="156.38 528.79 190.5 509.09 224.72 529.03 190.55 548.28 156.38 528.79"/><polygon class="cls-8" points="87.65 489.11 121.77 469.41 155.99 489.36 121.82 508.6 87.65 489.11"/><polygon class="cls-8" points="24.15 452.45 57.83 432.68 88.07 450.14 53.9 469.38 24.15 452.45"/><polygon class="cls-8" points="359.91 606.98 394.03 587.28 404.21 593.45 370.51 613.21 359.91 606.98"/><polygon class="cls-8" points="427.91 567.93 462.03 548.23 472.21 554.39 438.52 574.15 427.91 567.93"/><polygon class="cls-8" points="496.25 528.75 530.37 509.05 540.55 515.22 506.86 534.98 496.25 528.75"/><polygon class="cls-8" points="563.76 489.55 597.88 469.85 608.06 476.01 574.36 495.77 563.76 489.55"/><polygon class="cls-8" points="291.47 567.47 325.59 547.77 359.81 567.71 325.64 586.96 291.47 567.47"/><polygon class="cls-8" points="224.39 528.74 258.51 509.04 292.73 528.98 258.56 548.23 224.39 528.74"/><polygon class="cls-8" points="155.66 489.06 189.79 469.36 224 489.3 189.83 508.55 155.66 489.06"/><polygon class="cls-8" points="87.86 449.92 121.98 430.21 156.2 450.16 122.03 469.4 87.86 449.92"/><polygon class="cls-8" points="359.57 567.62 393.69 547.92 427.91 567.86 393.74 587.11 359.57 567.62"/><polygon class="cls-8" points="427.91 528.66 462.03 508.96 496.25 528.9 462.08 548.15 427.91 528.66"/><polygon class="cls-8" points="291.13 528.11 325.25 508.41 359.47 528.35 325.3 547.59 291.13 528.11"/><polygon class="cls-8" points="224.05 489.38 258.17 469.68 292.39 489.62 258.22 508.86 224.05 489.38"/><polygon class="cls-8" points="155.32 449.7 189.45 430 223.67 449.94 189.5 469.19 155.32 449.7"/><line class="cls-8" x1="91.82" y1="413.04" x2="125.5" y2="393.27"/><line class="cls-8" x1="427.58" y1="567.57" x2="461.7" y2="547.87"/><polygon class="cls-8" points="359.14 528.06 393.27 508.36 427.49 528.3 393.31 547.54 359.14 528.06"/><polygon class="cls-8" points="292.06 489.33 326.19 469.63 360.4 489.57 326.23 508.81 292.06 489.33"/><polygon class="cls-8" points="223.34 449.65 257.46 429.95 291.68 449.89 257.51 469.13 223.34 449.65"/><polygon class="cls-8" points="155.54 410.5 189.66 390.8 223.88 410.75 189.71 429.99 155.54 410.5"/><line class="cls-8" x1="427.74" y1="528.6" x2="461.87" y2="508.9"/><polygon class="cls-8" points="359.31 489.09 393.43 469.39 427.65 489.33 393.48 508.58 359.31 489.09"/><polygon class="cls-8" points="427.23 449.88 461.35 430.17 495.57 450.12 461.4 469.36 427.23 449.88"/><polygon class="cls-8" points="292.22 450.36 326.35 430.66 360.56 450.6 326.39 469.85 292.22 450.36"/><polygon class="cls-8" points="223.5 410.68 257.62 390.98 291.84 410.92 257.67 430.17 223.5 410.68"/><polygon class="cls-8" points="291.42 371.47 325.54 351.76 359.76 371.71 325.59 390.95 291.42 371.47"/><polygon class="cls-8" points="225.7 335.16 261.33 314.88 291.84 332.49 257.67 351.74 225.7 335.16"/><line class="cls-8" x1="159.99" y1="374.02" x2="193.67" y2="354.25"/><line class="cls-8" x1="495.75" y1="528.55" x2="529.88" y2="508.85"/><polygon class="cls-8" points="427.32 489.04 461.44 469.34 495.66 489.28 461.49 508.52 427.32 489.04"/><polygon class="cls-8" points="360.24 450.31 394.36 430.61 428.58 450.55 394.41 469.8 360.24 450.31"/><polygon class="cls-8" points="291.51 410.63 325.63 390.93 359.85 410.87 325.68 430.12 291.51 410.63"/><polygon class="cls-8" points="223.71 371.49 257.83 351.78 292.05 371.73 257.88 390.97 223.71 371.49"/><polygon class="cls-8" points="495.42 489.19 529.54 469.49 563.76 489.43 529.59 508.68 495.42 489.19"/><polygon class="cls-8" points="359.9 410.95 394.02 391.25 428.24 411.19 394.07 430.43 359.9 410.95"/><polygon class="cls-8" points="495.55 410.89 525.36 393.81 559.63 413.24 529.72 430.38 495.55 410.89"/><polygon class="cls-8" points="359.74 332.48 393.87 312.78 428.08 332.72 393.91 351.97 359.74 332.48"/><polygon class="cls-8" points="563.74 450.2 593.63 432.82 627.9 452.26 597.91 469.69 563.74 450.2"/><polygon class="cls-8" points="428.22 371.96 462.34 352.26 496.56 372.2 462.39 391.45 428.22 371.96"/><line class="cls-8" x1="291.17" y1="371.27" x2="325.29" y2="351.57"/><line class="cls-8" x1="563.43" y1="489.14" x2="597.55" y2="469.44"/><polygon class="cls-8" points="494.99 449.63 529.11 429.92 563.33 449.87 529.16 469.11 494.99 449.63"/><polygon class="cls-8" points="427.91 410.9 462.03 391.19 496.25 411.14 462.08 430.38 427.91 410.9"/><polygon class="cls-8" points="359.18 371.22 393.31 351.51 427.52 371.46 393.35 390.7 359.18 371.22"/><polygon class="cls-8" points="291.38 332.07 325.5 312.37 359.72 332.31 325.55 351.56 291.38 332.07"/><path class="cls-9" d="M272.3,268.73s7.61,50.48,23.67,60.8,124.47,78.58,127.33,78,9,3.67,20.83,1.55,66.26-34.46,66.26-34.46,22.46-15.85,22.46-21.58,2-14.18,2-14.18"/><path class="cls-10" d="M448.54,369.68,267.29,265.87s-8-8.61,5.17-19.5,65.38-36.71,65.38-36.71,17.21-5.74,40.73,6.31,158.87,92.34,158.87,92.34,22.95,10.32,2.87,26.38-56.78,35-56.78,35S468,380.82,448.54,369.68Z"/><path class="cls-11" d="M444,352.48,296,267.59s-15.49-6-4.35-15.35,55.23-31.42,55.23-31.42a25.21,25.21,0,0,1,24.47,1.26c19.1,11.67,144.13,83.19,144.13,83.19s19.38,8.84,2.42,22.59-48,29.95-48,29.95S460.38,362,444,352.48Z"/><path class="cls-12" d="M304.58,268.16s33.84-24.66,45.88-23.52,48.75,24.67,65.39,33.85,36.13,22.94,45.31,25.23,50.42,28.94,49.2,29.78-22,14.06-24.48,15.45c-16,8.86-17.4,17.49-41.93,3.53C418.59,338,321.64,282.31,321.64,282.31l-21-12.05Z"/><path class="cls-10" d="M112,421.37s-10.28,1.77-14.69,10.16,0,22.66,0,22.66-8.18,7.13-18.67,6.29-33.19-16.25-33.4-18.35,4.19.17-.1-18.56c-2.91-12.73-3.24-10.7-3.51-16.07C41,395.29,41,395.29,41,395.29Z"/><path class="cls-13" d="M127.54,416.46s-4.3,4.91-18.63,4.91c-18.56,0-27.17-2.79-40.69-7.75C61.84,411.27,41,395.29,41,395.29v-11.8l51.49,11.8L127.82,388l7.21,7s.16,7,0,9.6C134.67,410.67,127.54,416.46,127.54,416.46Z"/><path class="cls-14" d="M129,405.63s-5.8,6.14-20.13,6.14c-18.56,0-26.86-3.74-40.69-7.75C62.31,402.3,41,385.69,41,385.69v-11.8l51.49,11.8,35.35-7.28,5-2.87S135.19,392.38,135,395C134.67,401.07,129,405.63,129,405.63Z"/><path class="cls-15" d="M41,373.89v3.46s9.32,7.49,11.34,9,8,4.76,15.9,8.76c7.29,3.67,18.37,7.24,33.24,8.89,15.82,1.75,26.28-4.85,26.28-4.85s3.88-2.6,5-6.35c.66-2.12,2.66-5.66.54-13.31s-11.05-8.84-11.05-8.84Z"/><path class="cls-16" d="M41,373.89l41.63-25.46s47.71,12.57,50.16,27.11-.08,25.92-24.72,26.68c-25.32.77-51.89-15.47-54.34-17C48.72,382.12,41,373.89,41,373.89Z"/><polygon class="cls-17" points="395.09 117.6 395.09 176.42 495.54 234.41 495.54 174.76 395.09 117.6"/><line class="cls-17" x1="444.72" y1="146.25" x2="444.72" y2="205.64"/><polygon class="cls-18" points="283.04 410.69 335.32 382.44 416.58 430.37 368.59 461.43 283.04 410.69"/><path class="cls-19" d="M608.71,373.68l4.64,3L611,345.75s1.39-5.32-5-6.54-13.71-6.68-13.71-6.68Z"/><path class="cls-20" d="M579.81,321.43l-5.22,3a1.51,1.51,0,0,0,0,2.59l33.26,20a1.5,1.5,0,0,0,1.52,0l5.91-3.42a1.5,1.5,0,0,0-1.51-2.59c-1.38.8-4.14,1.72-5.12,3-.83,1.06.55.39.47.31-.29-.27-.73-.38-1-.63-3.34-2.6-7.52-4.52-11.15-6.71l-20.81-12.52V327l5.22-3a1.5,1.5,0,0,0-1.52-2.59Z"/><path class="cls-21" d="M575.35,369s-5.22-40.22,0-43.24,33.6,16.6,33.6,16.6-.56,36.19,0,39.15S575.35,369,575.35,369Z"/><ellipse class="cls-22" cx="169.52" cy="222.86" rx="39.07" ry="29.96" transform="translate(-59.16 384.44) rotate(-87.99)"/><path class="cls-16" d="M199.46,223.92a46.87,46.87,0,0,1-8.32,25.52,32.64,32.64,0,0,1-9.92,9.23,23.81,23.81,0,0,1-26-.75,32.68,32.68,0,0,1-9.44-9.87,48.16,48.16,0,0,1,1.82-52,32.56,32.56,0,0,1,10.12-9.18,23.79,23.79,0,0,1,26,1.07,32.78,32.78,0,0,1,9.25,9.91A46.89,46.89,0,0,1,199.46,223.92Zm0,0a46.83,46.83,0,0,0-6.63-26,32.18,32.18,0,0,0-9.3-9.72,23.28,23.28,0,0,0-25.47-.73,32.32,32.32,0,0,0-9.76,9.09,48.08,48.08,0,0,0-1.8,51,32.46,32.46,0,0,0,9.1,9.75,23.31,23.31,0,0,0,25.46,1,31.89,31.89,0,0,0,10-9A46.77,46.77,0,0,0,199.46,223.92Z"/><polygon class="cls-23" points="141.52 301.69 202.81 266.31 236.22 286.24 173.03 322.72 139.06 303.11 141.52 301.69"/><ellipse class="cls-24" cx="188.18" cy="294.62" rx="29.33" ry="13.84" transform="translate(-114.78 120.17) rotate(-27.5)"/><polygon class="cls-25" points="139.06 303.11 139.07 314.75 173.03 333.87 173.03 322.72 139.06 303.11"/><polygon class="cls-26" points="236.22 286.24 236.22 298.21 173.03 333.87 173.03 322.72 236.22 286.24"/><polygon class="cls-27" points="173.03 333.87 173.03 421.37 139.07 401.63 139.07 314.75 173.03 333.87"/><polygon class="cls-28" points="236.22 298.21 237.23 384.65 173.03 421.37 173.03 333.87 236.22 298.21"/><line class="cls-29" x1="206.96" y1="314.75" x2="209.49" y2="400.51"/><polyline class="cls-30" points="529.63 254.09 614.53 303.12 631.51 293.31"/><polygon class="cls-31" points="547.22 243.71 530.79 253.2 615.7 302.22 632.67 292.41 547.22 243.71"/><polygon class="cls-32" points="555.1 259 572.08 268.8 572.25 239.49 555.1 229.59 555.1 259"/><polygon class="cls-33" points="572.08 268.8 576.18 266.68 576.18 237.81 572.25 239.49 572.08 268.8"/><polygon class="cls-34" points="555.1 229.59 572.25 239.49 576.18 237.81 559.21 228.05 555.1 229.59"/><circle class="cls-35" cx="379.1" cy="513.04" r="7.76"/><path class="cls-35" d="M372.67,508.22s-7-10.15-15.51-3.22c-7.81,6.33-7.16,12.75-6,17.73,1.45,6.28,8.17,8.72,11.64,10.33s1.54-.68,1.94-3.52c1-7.3,2.48-9.35,3.76-10.81,2.15-2.44,6.89.46,6.89.46l2.11-8.37Z"/><path class="cls-36" d="M382,505.82s.29-6-1.53-4.9-2.47,6.21-2.47,6.21Z"/><circle cx="380.57" cy="511.46" r="0.78"/><circle class="cls-37" cx="387.26" cy="287.82" r="5.49"/><path class="cls-37" d="M385.78,293.31s-4.85,7.22,1.94,11c6.19,3.48,10.24,1.37,13.21-.68,3.75-2.59,3.59-7.64,3.75-10.34s-.85-.83-2.82-.36c-5.07,1.23-6.79.82-8.08.36-2.17-.77-1.5-4.64-1.5-4.64l-6,.79Z"/><path class="cls-36" d="M381.78,287.82s-4,1.37-2.82,2.29,4.72,0,4.72,0Z"/><circle cx="385.84" cy="287.27" r="0.55"/></g></svg>