<svg xmlns="http://www.w3.org/2000/svg" viewBox="0 0 116.72 205.43"><defs><style>.cls-1{fill:#edc0b3;}.cls-1,.cls-2,.cls-4,.cls-6{stroke:#965b6d;}.cls-1,.cls-2,.cls-4,.cls-5,.cls-6,.cls-7,.cls-8,.cls-9{stroke-miterlimit:10;}.cls-1,.cls-2,.cls-6{stroke-width:1.05px;}.cls-2{fill:#fae9e3;}.cls-3{fill:#5b3746;}.cls-4{fill:#c17b8d;stroke-width:0.52px;}.cls-5,.cls-7{fill:none;}.cls-5{stroke:#5d757f;stroke-width:2px;}.cls-6{fill:#d8aeb9;}.cls-7{stroke:#a3b2b7;}.cls-8{fill:#2f8251;}.cls-8,.cls-9{stroke:#a03232;stroke-width:0.15px;}.cls-9{fill:#38a865;}</style></defs><title>closet</title><g id="furnish"><polygon class="cls-1" points="18.5 200.56 18.5 55.81 90.39 15.95 90.51 159.67 18.5 200.56"/><polygon class="cls-1" points="0 190.56 18.5 200.56 18.5 55.81 0 46.78 0 190.56"/><polygon class="cls-2" points="90.39 15.95 71.87 6.11 0 46.78 18.5 57.46 90.39 15.95"/><polygon class="cls-3" points="52.56 36.92 53.83 98.4 89.65 78 90.39 15.95 52.56 36.92"/><polygon class="cls-4" points="53.83 98.4 54.5 160.16 90.49 140.11 89.65 78 53.83 98.4"/><polygon class="cls-4" points="18.5 119.08 53.83 98.4 54.5 160.16 18.5 181.51 18.5 119.08"/><path class="cls-5" d="M47.52,44.79l45-25.67"/><polygon class="cls-6" points="116.72 38.4 90.39 15.95 89.65 78 116.72 100.88 116.72 38.4"/><path class="cls-7" d="M59.65,36.73C58,34,62.46,32.79,63.28,33.65c1.53,1.58,0,5.77,0,5.77l8.88,5.37"/><line class="cls-7" x1="63.28" y1="39.42" x2="57.37" y2="43"/><path class="cls-8" d="M59.28,41.21s-1.57,6.34,3.38,3.58,5.09-3.58,5.09-3.58,5.41,2.44,6.64,4.42c4.69,7.51,3.16,35.42,3.16,35.42l-5.39,1.17V78s-7.82,3.25-12.66,2.47-6.12,2.13-6.93-1.74-3.79-26.3.67-33.51C54.24,43.6,59.28,41.21,59.28,41.21Z"/><polygon class="cls-4" points="18.5 57.46 52.56 36.92 53.83 98.4 18.5 119.08 18.5 57.46"/><path class="cls-8" d="M70,55.15S72.16,73.79,72.16,78"/><path class="cls-9" d="M63.28,54.57h3.09s.69,3.85-1.34,3.85C61.68,58.42,63.28,54.57,63.28,54.57Z"/></g></svg>