<svg xmlns="http://www.w3.org/2000/svg" viewBox="0 0 65.75 59.2"><defs><style>.cls-1,.cls-4{fill:#fffbf5;}.cls-1,.cls-4,.cls-5{stroke:#686868;}.cls-1,.cls-4,.cls-5,.cls-6{stroke-miterlimit:10;}.cls-1{stroke-width:0.16px;}.cls-2{fill:#b75546;}.cls-3{fill:#3e7f46;}.cls-4,.cls-5{stroke-width:0.16px;}.cls-5,.cls-6{fill:none;}.cls-6{stroke:#070505;stroke-width:0.2px;opacity:0.5;}</style></defs><title>Artboard 6</title><g id="others"><polyline class="cls-1" points="45.99 43.39 45.95 44.41 46.32 45.45 46.27 46.29 46.57 47.03 18.98 51.89 18.39 48.15 45.99 43.39"/><polyline class="cls-2" points="46.03 42.54 42.11 23.49 15.16 27.8 17.53 47.57 46.03 42.54"/><polygon class="cls-2" points="46.03 42.54 17.53 47.57 17.59 49.43 17.82 51.09 18.33 52.58 46.84 47.65 46.73 46.98 18.98 51.89 18.39 48.15 46.15 43.35 46.03 42.54"/><path class="cls-3" d="M3.37,35.71s13.47-6.29,26,0c0,0,2,2.68,4.42.91s17.39-4.08,27.11-1.55L59.41,7.48S44.52,3.06,35.67,7a4,4,0,0,1-5.89-.08c-3.06-3.07-18.19-2.43-23-.27Z"/><path class="cls-4" d="M3.37,34.87s13.47-6.29,26,0a3.86,3.86,0,0,0,2.6,1.51,2.82,2.82,0,0,0,1.82-.6C36.21,34,51.14,31.7,60.86,34.23L59.41,6.64S44.52,2.22,35.67,6.12A4,4,0,0,1,29.78,6C26.72,3,11.59,3.61,6.73,5.77Z"/><path class="cls-4" d="M3.37,34.42s13.47-6.29,26,0c0,0,2,2.68,4.42.91s17.39-4.08,27.11-1.55L59.41,6.19S44.52,1.78,35.67,5.67a4,4,0,0,1-5.89-.08c-3.06-3.07-18.19-2.43-23-.27Z"/><path class="cls-4" d="M3.37,34s13.47-6.3,26,0c0,0,2,2.67,4.42.9s17.39-4.08,27.11-1.55L59.41,5.74S44.52,1.33,35.67,5.22a4,4,0,0,1-5.89-.08c-3.06-3.07-18.19-2.43-23-.26Z"/><polyline class="cls-5" points="32.68 6.51 32.11 35.48 31.93 36.38"/><path class="cls-6" d="M36.36,27.62s14.84-3.35,19.51,0"/><path class="cls-6" d="M36.36,25.11s14.84-3.35,19.51,0"/><path class="cls-6" d="M35.72,21.75s14.84-3.35,19.51,0"/></g></svg>