<svg xmlns="http://www.w3.org/2000/svg" viewBox="0 0 648.88 671.89"><defs><style>.cls-1,.cls-5{fill:#b55a36;}.cls-2{fill:#d8d58f;}.cls-3{fill:#fee9cf;}.cls-4{fill:#faf7d6;}.cls-5,.cls-6,.cls-7{stroke:#d09968;}.cls-13,.cls-17,.cls-18,.cls-19,.cls-20,.cls-21,.cls-26,.cls-27,.cls-28,.cls-29,.cls-30,.cls-35,.cls-41,.cls-44,.cls-45,.cls-46,.cls-49,.cls-5,.cls-6,.cls-7{stroke-miterlimit:10;}.cls-6{fill:#a64106;}.cls-7{fill:#7e3618;}.cls-8{fill:#d0e2ea;}.cls-9{fill:#feffff;}.cls-10{fill:#c9c6c8;}.cls-11{fill:#ededed;}.cls-12{fill:#d68c50;}.cls-13,.cls-26,.cls-27,.cls-30,.cls-35,.cls-41,.cls-44,.cls-49{fill:none;}.cls-13{stroke:#606060;stroke-width:1.05px;}.cls-14,.cls-17,.cls-28,.cls-29{fill:#f7f7e7;}.cls-15{fill:#d3d3d3;}.cls-16{fill:#a6b5ba;}.cls-17,.cls-18,.cls-19,.cls-20,.cls-21{stroke:#a3a276;}.cls-17,.cls-18,.cls-19,.cls-20,.cls-21,.cls-30{stroke-width:0.25px;}.cls-18{fill:#8db78b;}.cls-19{fill:#b1e2af;}.cls-20{fill:#a5d3a3;}.cls-21{fill:#b0ffae;}.cls-22{fill:#dcdfea;}.cls-23{fill:#c5d2e4;}.cls-24{fill:#4db7b5;}.cls-25{fill:#dbe7e9;}.cls-26,.cls-27,.cls-30{stroke:#000;}.cls-26{stroke-width:2.43px;}.cls-27{stroke-width:1.79px;}.cls-28,.cls-29{stroke:#68a565;}.cls-29,.cls-45,.cls-46,.cls-49{stroke-width:0.5px;}.cls-31{fill:#858d93;}.cls-32{fill:#3c352d;}.cls-33{fill:#959ca3;}.cls-34{fill:#e4e7ef;}.cls-35{stroke:#9fe2de;}.cls-36{fill:#151516;}.cls-37{fill:#7b818e;}.cls-38{fill:#c44141;}.cls-39{fill:#b59033;}.cls-40{fill:#aaa9a9;}.cls-41{stroke:#d7ddda;}.cls-42{fill:#474c49;}.cls-43{fill:#176d19;}.cls-44{stroke:#f7f9f8;stroke-width:1.61px;}.cls-45{fill:#4a4a4c;}.cls-45,.cls-46{stroke:#303033;}.cls-46{fill:#5165f4;}.cls-47{fill:#f9f95a;}.cls-48{fill:#565654;}.cls-49{stroke:#e5e500;}</style></defs><title>kitchen</title><g id="kitchen"><polygon class="cls-1" points="324.04 653.76 0 466.71 0 195.36 326.68 8.31 649.4 195.36 649.4 466.71 324.04 653.76"/><polygon class="cls-2" points="13.17 458.81 324.04 639.27 638.87 458.81 324.04 278.35 13.17 458.81"/><polygon class="cls-3" points="13.17 458.81 13.17 200.63 326.68 20.17 324.04 278.35 13.17 458.81"/><polygon class="cls-4" points="638.87 458.81 638.87 200.63 326.68 20.17 324.04 278.35 638.87 458.81"/><polygon class="cls-5" points="76.45 151.59 87.39 157.91 53.38 177.48 42.35 171.11 76.45 151.59"/><polygon class="cls-6" points="110.65 131.53 121.59 137.85 87.58 157.42 76.55 151.05 110.65 131.53"/><polygon class="cls-7" points="145.27 111.49 156.21 117.81 122.2 137.38 111.17 131.01 145.27 111.49"/><polygon class="cls-5" points="179.97 91.86 190.91 98.17 156.9 117.75 145.87 111.38 179.97 91.86"/><polygon class="cls-6" points="214.39 72.32 225.34 78.64 191.32 98.22 180.29 91.85 214.39 72.32"/><polygon class="cls-5" points="248.81 52.63 259.76 58.95 225.75 78.53 214.71 72.16 248.81 52.63"/><polygon class="cls-7" points="283.11 32.91 294.05 39.23 260.04 58.81 249 52.44 283.11 32.91"/><polygon class="cls-5" points="0 379.65 13.17 387.07 13.17 353.31 0 345.72 0 379.65"/><polygon class="cls-7" points="0 344.7 13.17 352.12 13.17 318.37 0 310.77 0 344.7"/><polygon class="cls-5" points="0 310.61 13.17 318.03 13.17 284.28 0 276.68 0 310.61"/><polygon class="cls-7" points="0 275.67 13.17 283.09 13.17 249.33 0 241.74 0 275.67"/><polygon class="cls-6" points="0 242.13 13.17 249.55 13.17 215.8 0 208.2 0 242.13"/><polygon class="cls-7" points="0 195.77 13.17 200.63 53.38 177.48 42.35 171.11 0 195.77"/><polygon class="cls-7" points="153.6 538.83 153.6 556.95 119.57 537.34 119.57 519.67 153.6 538.83"/><polygon class="cls-5" points="119.57 519.02 119.57 537.13 85.55 517.53 85.55 499.86 119.57 519.02"/><polygon class="cls-6" points="87.52 500.38 87.52 518.5 53.49 498.89 53.49 481.22 87.52 500.38"/><polygon class="cls-7" points="53.49 480.3 53.49 498.41 19.46 478.8 19.46 461.13 53.49 480.3"/><polygon class="cls-6" points="19.46 460.48 19.46 478.6 0 466.71 0 449.52 19.46 460.48"/><polygon class="cls-7" points="0 449.52 13.17 456.94 13.17 423.19 0 415.59 0 449.52"/><polygon class="cls-6" points="0 414.58 13.17 422 13.17 388.24 0 380.65 0 414.58"/><polygon class="cls-7" points="390.9 601.16 391.23 615.06 391.23 619.55 360.56 637.54 360.24 619.14 390.9 601.16"/><polygon class="cls-5" points="359.91 619.35 360.24 633.25 360.24 637.75 324.65 657.15 324.04 639.27 359.91 619.35"/><polygon class="cls-7" points="324.04 639.27 324.65 657.15 290.63 637.54 290.63 619.87 324.04 639.27"/><polygon class="cls-6" points="290.63 619.87 290.63 637.99 256.6 618.38 256.6 600.71 290.63 619.87"/><polygon class="cls-7" points="256.6 599.78 256.6 617.9 222.57 598.29 222.57 580.62 256.6 599.78"/><polygon class="cls-5" points="222.57 579.97 222.57 598.09 188.54 578.48 188.54 560.81 222.57 579.97"/><polygon class="cls-6" points="187.63 558.92 187.63 577.04 153.6 557.43 153.6 539.76 187.63 558.92"/><polygon class="cls-6" points="326.54 8.64 337.08 14.54 325.06 21.59 314.74 15.22 326.54 8.64"/><polygon class="cls-6" points="638.87 458.81 639.19 472.71 639.19 477.21 608.53 495.19 608.2 476.8 638.87 458.81"/><polygon class="cls-5" points="608.64 476.23 608.97 490.13 608.97 494.62 578.3 512.61 577.98 494.21 608.64 476.23"/><polygon class="cls-7" points="577.74 493.77 577.82 507.67 577.74 512.17 546.76 529.61 546.76 511.21 577.74 493.77"/><polygon class="cls-6" points="545.99 511.69 546.32 525.59 546.32 530.09 515.65 548.08 515.33 529.68 545.99 511.69"/><polygon class="cls-5" points="515.3 529.88 515.63 543.78 515.11 548.58 484.44 566.57 484.64 547.87 515.3 529.88"/><polygon class="cls-7" points="483.88 548.08 484.21 561.98 484.21 566.47 453.54 584.46 453.21 566.06 483.88 548.08"/><polygon class="cls-5" points="452.89 565.43 453.21 579.33 453.21 583.82 422.55 601.81 422.22 583.41 452.89 565.43"/><polygon class="cls-6" points="421.9 582.96 422.22 596.87 422.22 601.36 391.56 619.35 391.23 600.95 421.9 582.96"/><polygon class="cls-6" points="595.07 174.88 605.82 169.25 631.94 184.39 621.73 190.28 595.07 174.88"/><polygon class="cls-7" points="621.73 190.28 631.94 184.39 649.4 194.91 639.19 200.8 621.73 190.28"/><polygon class="cls-6" points="639.19 200.8 649.4 194.91 649.4 239.49 639.19 245.63 639.19 200.8"/><polygon class="cls-5" points="639.19 246.31 649.4 240.42 649.4 285 639.19 291.14 639.19 246.31"/><polygon class="cls-7" points="639.19 291.36 649.4 285.46 649.4 330.04 639.19 336.18 639.19 291.36"/><polygon class="cls-6" points="638.66 336.65 648.88 330.76 648.88 375.34 638.66 381.48 638.66 336.65"/><polygon class="cls-5" points="638.66 382.16 648.88 376.27 648.88 420.85 638.66 426.99 638.66 382.16"/><polygon class="cls-6" points="639.19 427.88 649.4 421.99 649.4 471.09 639.19 477.21 639.19 427.88"/><polygon class="cls-5" points="406.31 66.27 417.05 60.64 443.17 75.78 432.96 81.68 406.31 66.27"/><polygon class="cls-6" points="433.1 81.8 443.84 76.17 469.96 91.31 459.75 97.2 433.1 81.8"/><polygon class="cls-7" points="460.23 97.19 470.97 91.56 497.09 106.7 486.88 112.59 460.23 97.19"/><polygon class="cls-5" points="487.02 112.71 497.76 107.08 523.88 122.22 513.67 128.12 487.02 112.71"/><polygon class="cls-7" points="514.36 128.44 525.11 122.81 551.23 137.95 541.02 143.85 514.36 128.44"/><polygon class="cls-6" points="541.15 143.96 551.9 138.33 578.02 153.47 567.81 159.37 541.15 143.96"/><polygon class="cls-5" points="568.28 159.35 579.02 153.72 605.15 168.87 594.94 174.76 568.28 159.35"/><polygon class="cls-5" points="326.48 19.83 337.22 14.2 363.35 29.34 353.13 35.24 326.48 19.83"/><polygon class="cls-7" points="353.27 35.35 364.01 29.73 390.14 44.87 379.93 50.76 353.27 35.35"/><polygon class="cls-6" points="379.84 50.95 390.58 45.32 416.71 60.46 406.5 66.36 379.84 50.95"/><polygon class="cls-8" points="515.09 227.72 517.32 311.77 624.57 372.64 625.4 290.45 515.09 227.72"/><polygon class="cls-9" points="517.32 311.77 515.09 227.72 522.42 232.23 524.59 307.25 517.32 311.77"/><polygon class="cls-10" points="624.57 372.64 517.32 311.77 524.59 307.25 624.57 363.36 624.57 372.64"/><circle class="cls-11" cx="436.12" cy="150.93" r="19.41"/><path class="cls-12" d="M419.31,141.22a19.16,19.16,0,0,0,7.24,26.29A19.13,19.13,0,0,0,441,169.24,19.14,19.14,0,0,0,454.44,146a19.14,19.14,0,0,0-23.32-13.77A19.43,19.43,0,0,0,419.31,141.22Zm0,0a19.68,19.68,0,0,1,36,4.57,19.67,19.67,0,0,1-29,22.17,19.69,19.69,0,0,1-9-12A19.49,19.49,0,0,1,419.31,141.22Z"/><line class="cls-13" x1="436.12" y1="151.69" x2="436.12" y2="137.88"/><line class="cls-13" x1="446.27" y1="159.41" x2="435.96" y2="151.26"/><circle class="cls-12" cx="436.12" cy="151.23" r="1.54"/><polygon class="cls-14" points="310.24 455.6 358.91 427.5 358.91 427.5 417.3 461.21 319.98 517.4 300.51 528.64 242.13 494.93 310.24 455.6 358.91 427.5 310.24 455.6"/><polygon class="cls-15" points="242.13 494.93 242.12 500.55 300.51 534.26 300.51 528.64 242.13 494.93"/><polygon class="cls-16" points="417.3 461.21 417.3 466 300.51 534.26 300.51 528.64 417.3 461.21"/><polygon class="cls-15" points="300.51 534.26 300.51 597.72 297.43 595.91 297.43 532.48 300.51 534.26"/><polygon class="cls-15" points="245.2 502.33 245.2 566.91 242.12 565.27 242.12 500.54 245.2 502.33"/><polygon class="cls-16" points="303.56 532.48 300.51 534.26 300.51 597.72 303.56 595.96 303.56 532.48"/><polygon class="cls-16" points="248.25 504.08 245.2 502.33 245.2 566.91 248.25 565.3 248.25 504.08"/><polygon class="cls-16" points="417.3 465.99 414.25 467.78 414.25 532.05 417.3 530.26 417.3 465.99"/><polygon class="cls-15" points="414.25 467.78 414.25 532.05 411.17 530.51 411.17 469.58 414.25 467.78"/><polygon class="cls-17" points="222.16 325.31 324.04 266.49 425.93 325.31 476.87 295.9 323.85 207.64 171.22 295.9 222.16 325.31"/><polygon class="cls-18" points="171.22 295.9 222.16 325.31 222.16 403.74 171.22 374.33 171.22 295.9"/><polygon class="cls-19" points="324.04 266.49 324.04 344.92 222.16 403.74 222.16 325.31 324.04 266.49"/><polygon class="cls-20" points="425.93 325.31 425.73 403.63 324.04 344.92 324.04 266.49 425.93 325.31"/><polygon class="cls-21" points="476.87 295.9 476.87 374.33 425.73 403.63 425.93 325.31 476.87 295.9"/><polygon class="cls-22" points="104.9 290.7 174.87 248.01 122.24 216.84 52.17 258.27 104.9 290.7"/><polygon class="cls-23" points="103.07 464.82 104.9 290.7 52.17 258.27 52.17 435.14 103.07 464.82"/><polygon class="cls-24" points="174.87 422.77 103.07 464.82 104.9 290.7 174.87 248.01 174.87 422.77"/><polygon class="cls-25" points="171.34 255.03 111.42 292.21 111.42 330.32 171.34 295.59 171.34 255.03"/><polygon class="cls-25" points="111.42 337.29 171.34 302.32 171.34 420.18 111.42 456.58 111.42 337.29"/><polyline class="cls-26" points="116.89 350.46 120.7 350.46 120.7 370.86 116.89 370.86"/><polyline class="cls-27" points="114.98 300.18 118.8 300.18 118.8 311.2 114.98 311.2"/><polygon class="cls-28" points="231.76 328.77 231.76 387.6 277.57 361.14 277.57 302.32 231.76 328.77"/><polygon class="cls-29" points="321.22 279.58 287.26 299.18 287.26 313.89 321.22 294.28 321.22 279.58"/><polygon class="cls-29" points="321.21 296.73 287.25 316.34 287.25 331.05 321.22 311.44 321.21 296.73"/><polygon class="cls-29" points="321.22 313.88 287.26 333.49 287.26 348.19 321.22 328.58 321.22 313.88"/><polyline class="cls-30" points="231.76 338.29 237.3 335.06 276.91 311.95"/><polygon class="cls-31" points="237.77 328.36 237.87 331.94 274 311.24 274 307.46 237.77 328.36"/><polygon class="cls-31" points="237.14 344.44 238 373.84 273.37 353.36 273.37 323.54 237.14 344.44"/><path d="M304.12,297.74c.3.17.64.48,1,.42a4,4,0,0,0,.95-.52l2.72-1.49a.24.24,0,0,0,0-.41l-.73-.44c-.26-.16-.5.25-.24.41l.73.44v-.41L306.17,297a11.33,11.33,0,0,0-1.18.65c-.21.15.12.09,0,0a6.44,6.44,0,0,0-.63-.36.24.24,0,0,0-.24.42Z"/><path d="M304.62,314.9c.3.17.64.48,1,.42a4,4,0,0,0,.95-.52l2.73-1.49a.24.24,0,0,0,0-.41l-.73-.44a.24.24,0,0,0-.25.41l.73.44v-.41l-2.36,1.29a10.53,10.53,0,0,0-1.19.65c-.21.15.12.09,0,0a5.45,5.45,0,0,0-.63-.36.24.24,0,0,0-.24.42Z"/><path d="M305.15,330.51c.3.17.64.47,1,.42a4.27,4.27,0,0,0,1-.52l2.72-1.49a.24.24,0,0,0,0-.41l-.73-.44a.24.24,0,0,0-.24.41l.73.44v-.41l-2.37,1.29c-.38.21-.82.39-1.18.64-.21.16.11.1,0,0a4.89,4.89,0,0,0-.63-.36.24.24,0,0,0-.24.42Z"/><polygon class="cls-32" points="213.3 194.41 213.3 255.99 319.95 194.41 318.87 132.21 213.3 194.41"/><polygon class="cls-33" points="293.29 117.44 293.29 179.02 319.95 194.41 319.95 132.84 293.29 117.44"/><polygon class="cls-34" points="319.95 132.84 293.29 117.44 186.63 179.02 213.3 194.41 319.95 132.84"/><polygon class="cls-24" points="319.95 194.41 293.29 179.02 186.63 240.59 213.3 255.99 319.95 194.41"/><polygon class="cls-24" points="314.79 165.03 211.28 224.03 188.58 210.93 291.44 151.55 314.79 165.03"/><line class="cls-35" x1="314.79" y1="165.03" x2="207.45" y2="226.21"/><polygon class="cls-23" points="213.3 255.99 186.63 240.59 186.63 179.02 213.3 194.41 213.3 255.99"/><polygon class="cls-36" points="372.16 247.71 342.53 264.82 388.57 290.45 417.63 273.96 372.16 247.71"/><circle class="cls-37" cx="380.15" cy="277.57" r="5.34"/><circle class="cls-37" cx="374.99" cy="257.96" r="5.34"/><circle class="cls-37" cx="393.57" cy="269.45" r="3.68"/><circle class="cls-38" cx="361.06" cy="267.32" r="3.68"/><polygon points="486.03 263.24 510.1 278.45 510.1 275.92 485.87 260.49 486.03 263.24"/><path class="cls-39" d="M488.83,263.43v20.62s-.63,2.29-2,2.7c0,0-1.49,6.33-.75,6.68a17.13,17.13,0,0,0,4.27,1,37.45,37.45,0,0,0,.94-4.87c.17-1.39.3-2.17.3-2.17-1.54-.7-1.86-3.22-1.86-3.22l0-20.26Z"/><path class="cls-40" d="M499.69,270.28V290.9s.24,1.55-1.08,2c0,0-1.45,2.16-3.31,5.26-1.3,2.17,3.89,2.49,3.89,2.49s2.34.42,3.53-3.54a8.81,8.81,0,0,0-.14-3.24,4.66,4.66,0,0,1-2-2.77l0-20.27Z"/><line class="cls-41" x1="546.25" y1="418.87" x2="548.49" y2="418.37"/><polygon class="cls-42" points="445.37 364.66 479.33 345.05 496.31 354.86 462.35 374.46 445.37 364.66"/><polygon class="cls-43" points="445.37 364.66 449.98 406.8 462.35 413.68 462.35 374.46 445.37 364.66"/><polygon class="cls-43" points="496.31 354.86 491.78 396.49 462.35 413.68 462.35 374.46 496.31 354.86"/><path class="cls-44" d="M482.9,379l.09,1.28c-6.26-3.07-8.77,3.23-8.77,3.23"/><path class="cls-44" d="M484.23,383.16s2.29,6.15-3,6.08"/><polyline class="cls-44" points="482.03 388.08 481.2 389.64 482.24 390.08"/><path class="cls-44" d="M473.67,387l.3-2.16c0,2,1.79,6.23,5,4.76"/><line class="cls-44" x1="475.35" y1="386.05" x2="474.05" y2="384.97"/><polygon class="cls-45" points="472.23 530.38 446.47 500.81 452.84 482.27 478.6 511.83 472.23 530.38"/><polygon class="cls-46" points="472.23 530.38 512.71 517.77 517.09 504.31 478.6 511.83 472.23 530.38"/><polygon class="cls-46" points="452.84 482.27 494.57 478.73 517.09 504.31 478.6 511.83 452.84 482.27"/><path class="cls-40" d="M265.6,431.21,248.7,443a1.79,1.79,0,0,1-2.23.23s-2.61.05-6.2.29c-2.54.18.18,4.62.18,4.62s1,2.16,4.92.87a8.91,8.91,0,0,0,2.57-2,4.69,4.69,0,0,1,1.13-3.24l16.63-11.57Z"/><path class="cls-47" d="M625.4,278.94,580.75,254.7l-26.23-14.24-37.2-20.19L515.09,224l-5.64,101.29,2.84-13.87s-.21,17.06,5,12.18,7.27,1.69,7.27,1.69-14.49-46.86-4.75-45.21S561,244,561,244"/><path class="cls-48" d="M559.79,246.28l66.14,35.91c.85.46,1.61-.83.76-1.3L560.55,245c-.85-.46-1.61.84-.76,1.3Z"/><path class="cls-47" d="M593.24,263.59s.89,21.68,8.77,32.31S625.77,323,625.4,325.31s-6,44.18-13,43.43,3,.48,8.11,4.81a10.12,10.12,0,0,0,10.62,1.61s-8.21-41.8-1.38-46.47c8.48-5.8-.78-46.66-.78-46.66Z"/><path class="cls-49" d="M539.32,252.61s-10.68,17.6-15.8,17.67"/><path class="cls-49" d="M609.89,290.45s18.46,23.83,17,29.34,1.77,33.39-2.3,43.57"/><path class="cls-49" d="M519.84,260.49s-3.61,5.85-4.75,17.86-.48,18.42,0,28.19,1.41,12.18,1.41,12.18"/><path class="cls-49" d="M531.42,241.62s-3.46,15.9-4.95,15.9"/><path class="cls-49" d="M622.93,290.45s6.23,8.79,5.09,19.06,3.6,4.29,2.66,11.73-3.72,8.39-3.72,8.39"/></g></svg>