<svg xmlns="http://www.w3.org/2000/svg" viewBox="0 0 74.95 63.17"><defs><style>.cls-1{fill:#5d757f;}.cls-2{fill:#918986;}.cls-3{fill:#bbb;}.cls-4,.cls-7{fill:none;stroke-miterlimit:10;}.cls-4{stroke:#bbb;stroke-width:0.44px;}.cls-5{fill:#85d1f8;}.cls-6{fill:#fcfcfc;}.cls-7{stroke:#5d757f;stroke-width:0.3px;}</style></defs><title>macbook</title><g id="others"><path class="cls-1" d="M2.46,48.61l23.7,14.12a.67.67,0,0,0,.67,0L71.52,36.11a.66.66,0,0,0,0-1.14L47.22,20.21a.67.67,0,0,0-.67,0L2.46,47.46c-.73.45-.06,1.6.67,1.15L31.86,30.85c4.62-2.85,9.74-5.41,14.06-8.69a4.51,4.51,0,0,1,1.21-.75c-.25,0-.81,0,0,.31,2.41.86,4.82,2.92,7,4.25L64,32c1.88,1.14,4.34,3.37,6.48,3.93.69.18.31-.91.15-.83-.49.25-.93.61-1.42.84a71.63,71.63,0,0,0-6.19,3.69L28.94,59.93a14.15,14.15,0,0,1-2.27,1.35c-1,.34.21.24,0,.21-2.05-.29-5-3-6.75-4l-16.79-10A.67.67,0,0,0,2.46,48.61Z"/><polygon class="cls-2" points="2.4 47.4 26.36 61.7 71.56 34.74 46.98 19.8 2.4 47.4"/><polygon class="cls-3" points="16.49 41.39 25.58 35.93 29.86 38.66 20.7 44.09 16.49 41.39"/><line class="cls-4" x1="19.43" y1="50.92" x2="38.26" y2="39.66"/><line class="cls-4" x1="20.99" y1="51.87" x2="39.82" y2="40.61"/><line class="cls-4" x1="22.94" y1="52.93" x2="41.77" y2="41.67"/><line class="cls-4" x1="26.38" y1="55.82" x2="15.02" y2="48.78"/><line class="cls-4" x1="32.06" y1="54.34" x2="20.7" y2="47.3"/><line class="cls-4" x1="30.13" y1="55.55" x2="18.77" y2="48.51"/><line class="cls-4" x1="33.96" y1="52.9" x2="22.61" y2="45.86"/><line class="cls-4" x1="36.08" y1="51.78" x2="24.72" y2="44.75"/><line class="cls-4" x1="15.02" y1="48.78" x2="29.04" y2="40.48"/><line class="cls-4" x1="17.9" y1="49.97" x2="39.79" y2="36.93"/><polygon class="cls-5" points="26.37 32.56 26.36 61.7 71.56 34.74 70.77 4.82 26.37 32.56"/><ellipse class="cls-6" cx="51.4" cy="32.99" rx="3.29" ry="2.42" transform="translate(11.68 79.39) rotate(-82.13)"/><path class="cls-7" d="M26.37,61.7V33.11a1,1,0,0,1,.47-.84L70,5.32c.65-.4.82-.32.85.45.19,5.48.77,23.25.77,29.62"/></g></svg>