<svg xmlns="http://www.w3.org/2000/svg" xmlns:xlink="http://www.w3.org/1999/xlink" viewBox="0 0 52.97 32"><defs><style>.cls-1{fill:#7f4e0d;}.cls-2{fill:url(#linear-gradient);}.cls-3{fill:url(#linear-gradient-2);}.cls-4{fill:url(#linear-gradient-3);}.cls-5{fill:url(#linear-gradient-4);}.cls-6{fill:#db771d;stroke:#4f4a34;stroke-width:0.24px;}.cls-6,.cls-7,.cls-8,.cls-9{stroke-miterlimit:10;}.cls-7,.cls-8,.cls-9{fill:none;stroke-width:0.3px;}.cls-7{stroke:#e59029;}.cls-8{stroke:#6d461b;}.cls-9{stroke:#ead973;}</style><linearGradient id="linear-gradient" x1="39.06" y1="-12.4" x2="39.2" y2="-16.63" gradientTransform="translate(29.2 48.07) rotate(-79.14)" gradientUnits="userSpaceOnUse"><stop offset="0" stop-color="#37aa5a"/><stop offset="0.72" stop-color="#07703b"/></linearGradient><linearGradient id="linear-gradient-2" x1="24.65" y1="-6.71" x2="25.47" y2="-19.18" xlink:href="#linear-gradient"/><linearGradient id="linear-gradient-3" x1="27.14" y1="-20.06" x2="31.63" y2="-20.06" xlink:href="#linear-gradient"/><linearGradient id="linear-gradient-4" x1="33.55" y1="-19.67" x2="34.83" y2="-3.51" xlink:href="#linear-gradient"/></defs><title>plant</title><g id="furnish"><polyline class="cls-1" points="21.42 27.26 20.04 22.49 19.82 16.32 20.88 10.77 22.35 7.13 26.19 2.38 31.52 9.24 30.06 16.88 28.09 27.1 21.42 27.26 21.42 27.26"/><path class="cls-2" d="M29.12,10.58s2.28.52-1.89-.72A52.17,52.17,0,0,1,21.35,8c-2.6-1-5.67-2.1-5.5-2.67,0,0,2,.15,3.29.1a22.31,22.31,0,0,1,4.69.78,11.53,11.53,0,0,0,4.42-.12l4.77,2Z"/><path class="cls-3" d="M28.94,24.22a15.82,15.82,0,0,1-8.41-2.06c-3.82-2.37-3-.48-4.89-1.05s-5.56-2-5.56-2,4.08-1.05,5.24-.91,4,1.09,5.94,1,4.61,2.34,5.39,1.92,4.94,2.68,4.94,2.68Z"/><path class="cls-4" d="M28.31,19.63s-2.36-2.87-4.19-.8c-1.06,1.21-4.73-.91-4.73-.91s-3-.26-3.38-.37-6.73-2.64-7.7-2.82.58.59.58.59S20,16.46,7.53,13.89,6,12.46,6,12.46a31.59,31.59,0,0,0,4,.33c.16-.16,6.91,1.7,6.91,1.7l5.46.06,3.42,1.77,2.66.95Z"/><path class="cls-5" d="M36.67,16s-3.58-1.32-4.18-.8-4.86,0-4.86,0S24.79,14,24.37,13.9s-4.55-.41-5.52-.59L17.35,13s-13.94-.34-1.46-2.79c2.88-.56-1.55-1.43-1.55-1.43a31.6,31.6,0,0,0,4,.33c.15-.16,6.9,1.71,6.9,1.71l5.46.05,3.42,1.77,2.66,1Z"/><path class="cls-6" d="M21.42,27.26,44.2,31.59s5.41-2.51,7.25-10.08C53.74,12.06,49,8.86,49,8.86L26.19,2.38l1.73,5.89-.29,6.94-2.7,7.52L22.24,26.2Z"/><polyline class="cls-7" points="30.6 29 33.78 25.25 31.54 15.83 33.52 8.84 34.62 4.7"/><polyline class="cls-8" points="33.01 29.47 36.69 25.84 40.18 17.52 39.26 10.32 37.03 5.17"/><polyline class="cls-9" points="36.01 30.04 44.86 27.5 48.82 19.62 42.26 10.9 40.03 5.74"/></g></svg>