<svg xmlns="http://www.w3.org/2000/svg" xmlns:xlink="http://www.w3.org/1999/xlink" viewBox="0 0 28.98 52.6"><defs><style>.cls-1{fill:#7f4e0d;}.cls-2{fill:url(#linear-gradient);}.cls-3{fill:url(#linear-gradient-2);}.cls-4{fill:url(#linear-gradient-3);}.cls-5{fill:url(#linear-gradient-4);}.cls-6{fill:#db771d;stroke:#4f4a34;stroke-width:0.24px;}.cls-6,.cls-7,.cls-8,.cls-9{stroke-miterlimit:10;}.cls-7,.cls-8,.cls-9{fill:none;stroke-width:0.3px;}.cls-7{stroke:#e59029;}.cls-8{stroke:#6d461b;}.cls-9{stroke:#ead973;}</style><linearGradient id="linear-gradient" x1="-537.98" y1="-201.25" x2="-537.84" y2="-205.48" gradientTransform="translate(558.95 223.52) rotate(0.08)" gradientUnits="userSpaceOnUse"><stop offset="0" stop-color="#37aa5a"/><stop offset="0.72" stop-color="#07703b"/></linearGradient><linearGradient id="linear-gradient-2" x1="-552.39" y1="-195.57" x2="-551.57" y2="-208.03" xlink:href="#linear-gradient"/><linearGradient id="linear-gradient-3" x1="-549.91" y1="-208.91" x2="-545.41" y2="-208.91" xlink:href="#linear-gradient"/><linearGradient id="linear-gradient-4" x1="-543.5" y1="-208.53" x2="-542.21" y2="-192.36" xlink:href="#linear-gradient"/></defs><title>plantup</title><g id="furnish"><polyline class="cls-1" points="1.16 22.3 5.59 20.05 11.61 18.68 17.26 18.69 21.11 19.45 26.5 22.34 20.75 28.86 12.98 28.85 2.56 28.83 1.16 22.3 1.16 22.3"/><path class="cls-2" d="M19,26.75s-.09,2.33.35-2a51.59,51.59,0,0,1,.71-6.12c.49-2.75,1-6,1.59-5.91,0,0,.23,2,.52,3.25a22,22,0,0,1,.11,4.76,11.63,11.63,0,0,0,.95,4.32l-1.06,5.06Z"/><path class="cls-3" d="M5.56,29.12A15.78,15.78,0,0,1,6,20.48c1.61-4.2-.09-3.07.12-5s.94-5.84.94-5.84,1.79,3.81,1.87,5-.31,4.18.08,6-1.43,5-.88,5.65-1.71,5.35-1.71,5.35Z"/><path class="cls-4" d="M9.94,27.64s2.38-2.85,0-4.26c-1.39-.82,0-4.81,0-4.81s-.3-3-.27-3.4S11,8.07,11,7.08s-.48.68-.48.68,1,11.12,1.16-1.6,1.12-1.79,1.12-1.79a32.55,32.55,0,0,0,.42,4c.19.13-.38,7.1-.38,7.1l1,5.38-1.1,3.69-.44,2.79Z"/><path class="cls-5" d="M15.1,35.18s.62-3.77,0-4.27-.95-4.76-.95-4.76.66-3,.69-3.45-.45-4.54-.45-5.53V15.64s-2.28-13.76,2.47-2C18,16.41,18,11.9,18,11.9a30.8,30.8,0,0,0,.43,4C18.58,16,18,23,18,23l1,5.37-1.1,3.69-.44,2.79Z"/><path class="cls-6" d="M1.16,22.3,2,47.79s2.65,2.55,10.43,2.94c9.71.48,14.07-4.09,14.07-4.09V22.34L21,25.14l-6.88,1L6.26,24.91l-3.91-2Z"/><polyline class="cls-7" points="1.68 31.94 5.45 34.07 14.28 30.11 21.52 30.74 26.5 31.1"/><polyline class="cls-8" points="1.68 34.46 5.41 37.04 14.23 38.91 21.14 36.66 26.5 33.02"/><polyline class="cls-9" points="1.68 38.19 5.31 45.38 13.79 47.8 21.13 39.72 26.5 36.07"/></g></svg>