<svg xmlns="http://www.w3.org/2000/svg" viewBox="0 0 649.4 645.45"><defs><style>.cls-1{fill:#e2d8b7;}.cls-2{fill:#4fd1a6;}.cls-3{fill:#e5e0ca;}.cls-4{fill:#f9f3d8;}.cls-20,.cls-21,.cls-5{fill:none;stroke-miterlimit:10;}.cls-5{stroke:#000;stroke-width:0.33px;}.cls-6{fill:#aa925c;}.cls-7{fill:#c2cfca;}.cls-8{fill:#282f39;}.cls-9{fill:#897849;}.cls-10{fill:#c2c7c5;}.cls-11{fill:#8d9a96;}.cls-12{fill:#a4b1ac;}.cls-13{fill:#eeefe8;}.cls-14{fill:#fff;}.cls-15{fill:#e2bb6d;}.cls-16{fill:#d3815f;}.cls-17{fill:#fccba0;}.cls-18{fill:#a3745d;}.cls-19{fill:#fce1ce;}.cls-20{stroke:#6b3a32;stroke-width:1.32px;}.cls-21{stroke:#fccba0;stroke-width:0.2px;}</style></defs><title>flatroom</title><g id="Layer_2" data-name="Layer 2"><polygon class="cls-1" points="324.04 645.45 0 458.4 0 187.05 326.68 0 649.4 187.05 649.4 458.4 324.04 645.45"/><polygon class="cls-2" points="13.17 450.5 324.04 630.96 638.87 450.5 324.04 270.04 13.17 450.5"/><polygon class="cls-3" points="13.17 450.5 13.17 192.32 326.68 11.86 324.04 270.04 13.17 450.5"/><polygon class="cls-4" points="638.87 450.5 638.87 192.32 326.68 11.86 324.04 270.04 638.87 450.5"/><polygon class="cls-5" points="632.67 339.69 632.67 339.69 632.67 339.69 632.67 339.69 632.67 339.69"/><line class="cls-5" x1="632.67" y1="339.7" x2="632.67" y2="339.7"/><line class="cls-5" x1="632.67" y1="339.7" x2="632.67" y2="339.7"/><line class="cls-5" x1="632.67" y1="339.7" x2="632.67" y2="339.7"/><line class="cls-5" x1="632.67" y1="339.7" x2="632.67" y2="339.7"/><line class="cls-5" x1="632.67" y1="339.7" x2="632.67" y2="339.7"/><line class="cls-5" x1="632.67" y1="339.7" x2="632.67" y2="339.7"/><line class="cls-5" x1="632.67" y1="339.7" x2="632.67" y2="339.7"/><line class="cls-5" x1="632.67" y1="339.7" x2="632.67" y2="339.7"/><line class="cls-5" x1="632.67" y1="339.7" x2="632.67" y2="339.7"/><line class="cls-5" x1="632.67" y1="339.7" x2="632.67" y2="339.7"/></g><g id="bed"><polygon class="cls-6" points="413.66 245.67 412.74 246.17 413.2 297.66 414.27 297.04 413.66 245.67"/><polygon class="cls-7" points="414.27 297.04 413.66 245.67 324.05 194.51 324.7 245.67 414.27 297.04"/><polygon class="cls-8" points="132.38 394.52 145.56 386.62 132.38 378.71 132.38 394.52"/><polygon class="cls-9" points="324.7 257.52 123.16 374.76 212.74 426.13 414.27 310.21 324.7 257.52"/><polygon class="cls-10" points="414.27 297.04 414.27 310.21 212.74 426.13 212.74 412.96 414.27 297.04"/><polygon class="cls-11" points="212.72 412.99 212.71 426.17 123.18 374.73 123.19 361.55 212.72 412.99"/><polygon class="cls-12" points="212.74 412.96 414.27 297.04 324.7 245.67 123.16 361.59 212.74 412.96"/><polygon class="cls-11" points="123.16 374.76 123.16 389.25 132.38 394.52 132.38 380.05 123.16 374.76"/><polygon class="cls-11" points="212.68 426.17 201.32 419.58 201.32 434.97 212.94 441.68 212.68 426.17"/><polygon class="cls-10" points="224.12 419.58 224.12 435.22 212.94 441.68 212.71 426.17 224.12 419.58"/><polygon class="cls-10" points="414.27 310.21 414.25 325.45 402.24 332.39 401.93 317.32 414.27 310.21"/><polygon class="cls-8" points="402.24 332.39 389.96 324.2 401.93 317.32 402.24 332.39"/><polygon class="cls-13" points="217.33 407.11 217.33 400.85 406.82 291.45 406.81 297.57 217.33 407.11"/><polygon class="cls-14" points="130.9 351.81 217.33 400.85 406.82 291.45 322.87 242.61 130.9 351.81"/><polygon class="cls-13" points="217.33 400.85 217.33 407.11 130.6 357 130.9 351.81 217.33 400.85"/><polygon class="cls-11" points="412.74 246.17 413.66 245.67 324.7 194.31 324.05 194.51 412.74 246.17"/></g><g id="drawer"><polygon class="cls-15" points="391.88 309.9 391.88 311.66 436.44 337.34 436.44 335.82 391.88 309.9"/><polygon class="cls-16" points="391.89 361.55 391.88 309.9 436.62 335.73 436.62 387.39 391.89 361.55"/><polygon class="cls-17" points="436.61 284.08 391.88 309.9 436.62 335.73 481.35 309.9 436.61 284.08"/><polygon class="cls-18" points="436.62 387.39 481.45 361.62 481.35 309.9 436.62 335.73 436.62 387.39"/><polygon class="cls-19" points="396.1 338.17 396.1 319.32 429.95 339.31 429.95 357.71 396.1 338.17"/><polygon class="cls-19" points="396.1 361.24 396.1 342.39 429.95 362.38 429.95 380.78 396.1 361.24"/><polygon class="cls-20" points="408.83 338.17 408.83 336.15 414.98 339.78 414.98 341.97 408.83 338.17"/><polygon class="cls-20" points="408.5 360.7 408.5 358.68 414.65 362.31 414.65 364.5 408.5 360.7"/><polyline class="cls-16" points="436.62 337.24 436.62 335.73 481.35 309.9 481.36 311.6 436.44 337.34"/><polyline class="cls-19" points="436.62 335.73 481.35 309.9 480.89 309.64 436.08 335.42 436.62 335.73"/><line class="cls-21" x1="436.62" y1="335.73" x2="481.35" y2="309.9"/></g></svg>