<svg xmlns="http://www.w3.org/2000/svg" viewBox="0 0 47.67 28.72"><defs><style>.cls-1{fill:#ffd249;}.cls-1,.cls-2,.cls-4{stroke:#feaf00;stroke-miterlimit:10;stroke-width:0.34px;}.cls-2,.cls-3{fill:#ffdf82;}.cls-4{fill:#faeabb;}.cls-5{fill:#91694a;}</style></defs><title>Artboard 9</title><g id="furnish"><path class="cls-1" d="M20.27,19.93c-2-.8-7.29-4-8.69-4.75A6.52,6.52,0,0,0,10,14.54a10.31,10.31,0,0,0-1.74-.36,7.69,7.69,0,0,0-3.3,1,7,7,0,0,0-2.61,5.45C2.28,24.34,4,24.26,5.19,25.34S9,26.49,11.41,26s1.54-2.23.69-2.15A16,16,0,0,1,8,23a2.15,2.15,0,0,1-1.31-2.31,2.61,2.61,0,0,1,2.46-2c1,0,5.22,1.23,8.37,1.56s4.23-1.3,4.23-1.3l.49.54a19.09,19.09,0,0,0,7.5,4.91,20.56,20.56,0,0,0,10.48.33c3-.66,5.32-2.87,5.41-4.29s-2.13-.88-3-.56A24.53,24.53,0,0,1,35.84,21a14.32,14.32,0,0,1-7.48-1.85C25.15,17.5,25.82,16.3,26,14.09c.32-3.52.53-5.58.22-7.06s.26-1.38.26-1.38,1.7-1.22,0-2.35a2.65,2.65,0,0,0-3.11,0,3,3,0,0,1,.23,1.92c-.31.77-2.11,2.47-2.46,3s-2.29,3.85-2.45,4.3a16,16,0,0,1-1.28,2.79,4.78,4.78,0,0,1-3.37,1.33C13.06,16.6,20.27,19.93,20.27,19.93Z"/><path class="cls-2" d="M17.43,15.31s-1.87-1.5-2.19-2.76a6.29,6.29,0,0,1,.39-4.43c.66-1.6.2-2.08-.57-2.19s-2.73,1.2-3.28,1.66a6.36,6.36,0,0,0-1.87,3A5.17,5.17,0,0,0,10.24,14a7.78,7.78,0,0,0,1.62,2.2l1.67,1.1.53-.62a2.26,2.26,0,0,0,1.24-.14A6,6,0,0,0,17.43,15.31Z"/><path class="cls-2" d="M5.29,15a4.49,4.49,0,0,0-.71,2.24A5.63,5.63,0,0,0,7,22.17a6.41,6.41,0,0,0,4.24,1.24c1,.09,1.89.68,1.72,1.51s-.58.9-1.24,1.14a12.53,12.53,0,0,1-4.66.09A7.63,7.63,0,0,1,4.44,25a4.15,4.15,0,0,1-2-3.21,7.06,7.06,0,0,1,.95-4.69C4.45,15.24,5.29,15,5.29,15Z"/><path class="cls-3" d="M24.17,4.75s.89-.52,1.22.32-.47.43-.28,1.08a8,8,0,0,1-.29,4.7c-.79,2.4-2.23,6.81-2.62,7.09s-1,1.66-1.93,2a6.72,6.72,0,0,1-2.84-.17l-3.14-2.64L14,16.9a7.91,7.91,0,0,0,1.56-.14,4.45,4.45,0,0,0,2.53-2.22c.69-1.44,2.29-4.79,2.62-5.18A9.42,9.42,0,0,1,22.2,7.44,8.66,8.66,0,0,0,24,5.63,2.43,2.43,0,0,0,24.17,4.75Z"/><path class="cls-4" d="M20.19,19.79,13,16c-.68-.35-2.5-1.56-3.86-1.65a5.61,5.61,0,0,0-3.83.7c-1,.78-.72,3.14-.57,3.75A5.11,5.11,0,0,0,7,22.17a2,2,0,0,1-.35-1.52,2.55,2.55,0,0,1,1.89-1.91,23.35,23.35,0,0,1,4.24.64c1.5.32,2.43.53,3.39.66a11.37,11.37,0,0,0,2.87.19A3.25,3.25,0,0,0,20.19,19.79Z"/><path class="cls-5" d="M24.27,3.93a7.38,7.38,0,0,1,2.3.66c.52.4.69-.55.48-.79a2.9,2.9,0,0,0-1.35-.89A2.41,2.41,0,0,0,24,3C23.39,3.3,24.27,3.93,24.27,3.93Z"/></g></svg>