<svg xmlns="http://www.w3.org/2000/svg" xmlns:xlink="http://www.w3.org/1999/xlink" viewBox="0 0 30.19 54.75"><defs><style>.cls-1{fill:#7f4e0d;}.cls-2{fill:url(#linear-gradient);}.cls-3{fill:url(#linear-gradient-2);}.cls-4{fill:url(#linear-gradient-3);}.cls-5{fill:url(#linear-gradient-4);}.cls-6{fill:#db771d;stroke:#4f4a34;stroke-width:0.24px;}.cls-6,.cls-7,.cls-8,.cls-9{stroke-miterlimit:10;}.cls-7,.cls-8,.cls-9{fill:none;stroke-width:0.3px;}.cls-7{stroke:#e59029;}.cls-8{stroke:#6d461b;}.cls-9{stroke:#ead973;}</style><linearGradient id="linear-gradient" x1="23" y1="23.28" x2="23.14" y2="19.05" gradientUnits="userSpaceOnUse"><stop offset="0" stop-color="#37aa5a"/><stop offset="0.72" stop-color="#07703b"/></linearGradient><linearGradient id="linear-gradient-2" x1="8.59" y1="28.96" x2="9.42" y2="16.5" xlink:href="#linear-gradient"/><linearGradient id="linear-gradient-3" x1="11.08" y1="15.62" x2="15.58" y2="15.62" xlink:href="#linear-gradient"/><linearGradient id="linear-gradient-4" x1="17.49" y1="16" x2="18.78" y2="32.17" xlink:href="#linear-gradient"/></defs><title>Artboard 8</title><g id="furnish"><polyline class="cls-1" points="2.91 24.11 7.33 21.86 13.36 20.48 19 20.48 22.85 21.23 28.25 24.11 22.51 30.64 14.73 30.64 4.32 30.64 2.91 24.11 2.91 24.11"/><path class="cls-2" d="M20.74,28.54s-.08,2.33.35-2a49.49,49.49,0,0,1,.71-6.13c.48-2.75,1-6,1.58-5.91,0,0,.23,2,.52,3.25A22.57,22.57,0,0,1,24,22.52,11.56,11.56,0,0,0,25,26.83l-1,5.07Z"/><path class="cls-3" d="M7.32,30.92a15.72,15.72,0,0,1,.43-8.64c1.61-4.2-.09-3.06.11-5s.93-5.84.93-5.84,1.8,3.81,1.88,5-.31,4.18.09,6-1.43,5-.87,5.65-1.71,5.36-1.71,5.36Z"/><path class="cls-4" d="M11.7,29.44s2.38-2.86,0-4.26c-1.39-.82,0-4.82,0-4.82s-.3-3-.27-3.39,1.32-7.1,1.32-8.09-.48.68-.48.68,1,11.11,1.16-1.61,1.11-1.79,1.11-1.79a32.63,32.63,0,0,0,.43,4c.19.13-.37,7.11-.37,7.11l1,5.37-1.1,3.69-.43,2.79Z"/><path class="cls-5" d="M16.87,37s.61-3.77,0-4.27-1-4.76-1-4.76.65-3,.68-3.45S16.13,20,16.13,19V17.43s-2.29-13.75,2.46-1.95c1.1,2.71,1.12-1.79,1.12-1.79a30.8,30.8,0,0,0,.43,4c.18.12-.37,7.1-.37,7.1l1,5.37-1.1,3.69-.43,2.8Z"/><path class="cls-6" d="M2.91,24.11,3,47.3s3.49,4.84,11.27,5.22c9.71.47,12-4.78,12-4.78l2.06-23.63-5.46,2.81-6.88,1L8,26.71l-3.91-2Z"/><polyline class="cls-7" points="2.93 33.46 7.22 35.87 16.04 31.9 23.28 32.52 27.55 32.82"/><polyline class="cls-8" points="2.93 35.91 7.18 38.84 16.01 40.7 22.91 38.45 27.55 35.28"/><polyline class="cls-9" points="2.93 38.97 7.1 47.18 15.58 49.59 22.91 41.5 27.55 38.33"/></g></svg>