<svg xmlns="http://www.w3.org/2000/svg" viewBox="0 0 82.65 83.1"><defs><style>.cls-1{fill:#2f8251;}.cls-1,.cls-2{stroke:#a03232;stroke-width:0.15px;}.cls-1,.cls-2,.cls-3{stroke-miterlimit:10;}.cls-2{fill:#38a865;}.cls-3{fill:none;stroke:#38a865;stroke-width:0.21px;}</style></defs><title>shirt</title><g id="others"><path class="cls-1" d="M18.08,26.67s8.56,8.4,11.77,0-2.14-8.62-2.14-8.62,10.7-5.43,12.84-6.35,2.25.18,5.35,11.49S56.81,28,59.27,30.4s-.54,15.41,2.67,27-8,5.93-15,10.92S36.27,83,31.45,79.52,28.94,65,23,55.25s-10.42-14-13.45-14C6.27,41.25,18.08,26.67,18.08,26.67Z"/><path class="cls-1" d="M9.27,41.27s13.84,10.87,9.92,16.17-13-5-17.93-5c0,0,.11,9.37-1.12,8.9s6.06,6.18,11.9,7,15.08-.79,16.31-6.43-13.28-20-13.28-20Z"/><path class="cls-1" d="M41.71,11.44S53,18,61,13.87A26,26,0,0,0,72,3.18s1.13,5.65,5.63,5.56-2.46,4.42-2.46,5.13-9.31,8.22-12.69,9.32-16.61,0-16.61,0S43.93,14,41.71,11.44Z"/><path class="cls-2" d="M37.8,27.11s3.08-.72,3.5-2.77,2.46,2.77,2.46,2.77,1.44,2,0,3.19-3.8,2.16-3.8,0A3.88,3.88,0,0,0,37.8,27.11Z"/><path class="cls-3" d="M21.15,40.34s8.22,8.31,16.45,3.42"/><path class="cls-3" d="M42,49.45c12.41-5.69,13.51-7.94,13.51-7.94"/></g></svg>